<?xml version="1.0" encoding="UTF-8"?>
<svg id="Layer_1" data-name="Layer 1" xmlns="http://www.w3.org/2000/svg" viewBox="0 0 50 50">
  <defs>
    <style>
      .cls-1 {
        stroke-width: 0px;
      }
    </style>
  </defs>
  <circle class="cls-1" cx="34.8" cy="17.97" r="1.06"/>
  <path class="cls-1" d="M30.62,33.09h-8.45c-4.34,0-7.94-3.53-8.03-7.87-.04-2.13.77-4.16,2.29-5.71,1.54-1.58,3.69-2.48,5.88-2.48h4.1c.52,0,.94.42.94.94s-.42.94-.94.94h-4.1c-1.69,0-3.34.7-4.54,1.91-1.16,1.19-1.79,2.74-1.75,4.36.07,3.32,2.82,6.02,6.15,6.02h8.45c1.78,0,3.23-1.45,3.23-3.23v-6.24c0-.52.42-.94.94-.94s.94.42.94.94v6.24c0,2.82-2.3,5.12-5.12,5.12Z"/>
</svg>