<?xml version="1.0" encoding="UTF-8"?>
<svg id="Layer_1" data-name="Layer 1" xmlns="http://www.w3.org/2000/svg" viewBox="0 0 90 90">
  <defs>
    <style>
      .cls-1 {
        stroke-width: 0px;
      }
    </style>
  </defs>
  <path class="cls-1" d="M4.62,52.83c-.2,0-.43-.06-.61-.2-.38-.28-.53-.81-.3-1.26l6.74-13.89c.18-.34.53-.57.91-.57s.75.22.91.57l6.78,13.87c.24.49.04,1.09-.47,1.34-.51.26-1.11.04-1.36-.45l-1.58-3.26c-1.05-.3-2.17-.34-3.36-.12-1.11.2-2.27.61-3.46,1.23-2.06,1.09-3.5,2.43-3.52,2.45-.18.18-.45.28-.69.28ZM11.36,40.24l-4.07,8.4c.18-.1.36-.2.57-.3,1.36-.73,2.73-1.21,4.05-1.46.91-.16,1.78-.22,2.63-.14l-3.18-6.5Z"/>
  <path class="cls-1" d="M22.71,42.89h0c.52,0,.96.4,1,.92l.12,1.34h.06c1.01-1.62,2.52-2.5,4.23-2.5.35,0,.65.02.92.07.57.1.93.67.79,1.24l-.02.09c-.13.51-.63.84-1.15.75-.26-.05-.54-.07-.9-.07-1.3,0-2.59.64-3.59,2.4-.08.15-.12.32-.12.49v4.21c0,.56-.45,1.01-1.01,1.01h-.32c-.56,0-1.01-.45-1.01-1.01v-7.93c0-.56.45-1.01,1.01-1.01Z"/>
  <path class="cls-1" d="M35.06,48.84v-4.09h-1.77c-.49,0-.89-.4-.89-.89h0c0-.48.38-.87.85-.89l1.9-.08.23-2.31c.04-.46.43-.8.89-.8h.24c.49,0,.89.4.89.89v2.22h3.63c.49,0,.89.4.89.89v.07c0,.49-.4.89-.89.89h-3.63v4.08c0,1.64.62,2.38,2.3,2.38.5,0,.94-.06,1.36-.16.46-.11.92.18,1.04.63h0c.12.47-.15.95-.62,1.08-.68.18-1.44.31-2.35.31-3.04,0-4.07-1.71-4.07-4.24Z"/>
  <path class="cls-1" d="M48.96,44.75h-3.37c-.51,0-.93-.42-.93-.93h0c0-.51.42-.93.93-.93h4.78c.51,0,.93.42.93.93v7.84c0,.65-.52,1.17-1.17,1.17h0c-.65,0-1.17-.52-1.17-1.17v-6.92ZM48.32,39.52c0-.93.7-1.58,1.66-1.58s1.66.65,1.66,1.58-.7,1.56-1.66,1.56-1.66-.62-1.66-1.56Z"/>
  <path class="cls-1" d="M54.01,50.75v-.02c.27-.38.77-.5,1.17-.28,1.02.54,2.16.85,3.47.85,1.38,0,2.02-.52,2.02-1.18s-.44-1.02-2.75-1.49c-2.65-.56-3.83-1.49-3.83-3.01,0-1.73,1.58-2.97,4.36-2.97,1.2,0,2.32.34,3.23.78.51.25.66.89.33,1.34h0c-.26.34-.72.45-1.11.26-.81-.4-1.72-.63-2.65-.63-1.29,0-1.82.5-1.82,1.1,0,.7.73.95,2.59,1.35,3.18.7,4,1.55,4,3.13,0,1.71-1.65,3.09-4.67,3.09-1.46,0-2.88-.44-4.02-1.03-.47-.25-.62-.85-.32-1.29Z"/>
  <path class="cls-1" d="M65.56,50.16c0-2.23,1.96-3.34,6.87-3.68-.08-1.11-.75-1.95-2.37-1.95-.85,0-1.69.28-2.5.67-.43.2-.94.05-1.18-.37h0c-.25-.45-.07-1.02.39-1.25,1.08-.53,2.37-.94,3.72-.94,2.76,0,4.28,1.53,4.28,4.3v4.99c0,.5-.4.9-.9.9h-.25c-.45,0-.82-.33-.89-.77l-.07-.46h-.07c-1.04.81-2.38,1.48-3.71,1.48-1.94,0-3.33-1.19-3.33-2.91ZM72.43,50.03v-2.09c-3.57.23-4.6.97-4.6,2.04,0,.88.77,1.25,1.76,1.25s1.92-.47,2.84-1.2Z"/>
  <path class="cls-1" d="M78.32,42.89h0c.51,0,.94.38,1.01.89l.07.6h.08c.95-.96,2.07-1.74,3.59-1.74,2.3,0,3.33,1.47,3.33,4.03v4.99c0,.65-.52,1.17-1.17,1.17h0c-.65,0-1.17-.52-1.17-1.17v-4.68c0-1.59-.51-2.32-1.85-2.32-.98,0-1.64.48-2.55,1.4v5.77c0,.56-.45,1.01-1.01,1.01h-.32c-.56,0-1.01-.45-1.01-1.01v-7.92c0-.56.45-1.01,1.01-1.01Z"/>
</svg>